<?xml version="1.0" standalone="no"?><!DOCTYPE svg PUBLIC "-//W3C//DTD SVG 1.1//EN" "http://www.w3.org/Graphics/SVG/1.1/DTD/svg11.dtd"><svg t="1580384056170" class="icon" viewBox="0 0 1024 1024" version="1.1" xmlns="http://www.w3.org/2000/svg" p-id="16189" xmlns:xlink="http://www.w3.org/1999/xlink" width="200" height="200"><defs><style type="text/css"></style></defs><path d="M438.070857 763.794286a329.508571 329.508571 0 0 0 191.579429-61.732572l203.136 203.154286a48.603429 48.603429 0 0 0 34.706285 14.134857c27.867429 0 48-21.430857 48-48.859428 0-12.854857-4.278857-24.850286-13.714285-34.267429L699.922286 633.910857c42.422857-55.716571 67.712-124.708571 67.712-199.716571 0-181.284571-148.278857-329.563429-329.563429-329.563429-181.723429 0-329.563429 148.278857-329.563428 329.563429S256.347429 763.794286 438.070857 763.794286z m0-71.149715c-141.860571 0-258.432-116.992-258.432-258.432 0-141.421714 116.571429-258.432 258.432-258.432 141.421714 0 258.432 117.010286 258.432 258.432 0 141.44-117.010286 258.432-258.432 258.432z" p-id="16190"></path></svg>