<?xml version="1.0" standalone="no"?><!DOCTYPE svg PUBLIC "-//W3C//DTD SVG 1.1//EN" "http://www.w3.org/Graphics/SVG/1.1/DTD/svg11.dtd"><svg t="1579178925281" class="icon" viewBox="0 0 1024 1024" version="1.1" xmlns="http://www.w3.org/2000/svg" p-id="2194" xmlns:xlink="http://www.w3.org/1999/xlink" width="200" height="200"><defs><style type="text/css"></style></defs><path d="M306.204 76.256L161.456 169.14l268.468 263.222 78.952-26.338V16.55z" fill="#AC92EB" p-id="2195"></path><path d="M711.546 941.09l144.718-92.916-268.438-263.158-78.95 26.274v389.598z" fill="#A0D468" p-id="2196"></path><path d="M343.944 962.834l168.024 36.68-3.75-375.946-74.42-37.242L158.394 861.732z" fill="#48CFAD" p-id="2197"></path><path d="M63.29 714.016l92.884 144.716 263.16-268.468-26.276-78.952H3.554z" fill="#4FC2E9" p-id="2198"></path><path d="M51.98 359.566L15.3 527.59l375.914-3.748 37.242-74.39L153.05 174.016z" fill="#5D9CEC" p-id="2199"></path><path d="M676.898 56.51L508.876 19.864l3.748 375.914 74.39 37.27L862.45 157.614z" fill="#ED5564" p-id="2200"></path><path d="M957.554 305.328l-92.886-144.686-263.158 268.44 26.276 78.95 364.074 3.28z" fill="#FC6E51" p-id="2201"></path><path d="M968.832 659.78l36.71-168.026-375.914 3.782-37.242 74.388 275.406 275.438z" fill="#FFCE54" p-id="2202"></path><path d="M512 0.118C229.314 0.118 0.118 229.314 0.118 512 0.118 794.748 229.316 1023.882 512 1023.882c282.716 0 511.884-229.134 511.884-511.882C1023.882 229.314 794.714 0.118 512 0.118z m432.4 329.268c21.682 51.3 33.868 105.476 36.334 161.306h-85.418c-4.904-89.948-40.8-171.648-97.196-234.634l60.424-60.424c36.148 39.524 64.988 84.418 85.856 133.752zM512 597.324c-47.02 0-85.292-38.274-85.292-85.324 0-47.02 38.272-85.292 85.292-85.292 47.052 0 85.326 38.272 85.326 85.292-0.002 47.05-38.276 85.324-85.326 85.324z m74.17-189.614a127.324 127.324 0 0 0-52.832-21.9v-86.042c41.866 4.124 81.138 20.402 113.662 47.084l-60.83 60.858z m-95.478-21.9a127.528 127.528 0 0 0-52.832 21.9l-60.83-60.86c32.524-26.682 71.796-42.958 113.662-47.084v86.044z m-82.982 52.052a127.492 127.492 0 0 0-21.902 52.832h-86.042c4.156-41.866 20.402-81.138 47.084-113.662l60.86 60.83z m-21.9 95.478a127.496 127.496 0 0 0 21.902 52.83l-60.862 60.862c-26.68-32.554-42.928-71.826-47.084-113.692h86.044z m52.05 82.98a127.49 127.49 0 0 0 52.832 21.9v86.042c-41.866-4.124-81.138-20.37-113.662-47.05l60.83-60.892z m95.478 21.9a127.35 127.35 0 0 0 52.832-21.9l60.83 60.892c-32.524 26.682-71.796 42.928-113.662 47.05V638.22z m82.982-52.05a127.492 127.492 0 0 0 21.9-52.83h86.042c-4.156 41.866-20.402 81.136-47.084 113.692l-60.858-60.862z m21.9-95.478a127.528 127.528 0 0 0-21.9-52.832l60.86-60.83c26.682 32.524 42.928 71.796 47.084 113.662H638.22z m39.054-174.116c-39.49-33.43-89.292-55.112-143.936-59.612V171.422c38.552 2.376 75.982 11.092 111.506 26.12a340.132 340.132 0 0 1 92.916 58.548l-60.486 60.486z m-186.582-59.612c-54.644 4.5-104.414 26.182-143.936 59.612l-60.486-60.486a340.114 340.114 0 0 1 92.916-58.548c35.522-15.028 72.952-23.744 111.504-26.12v85.542z m-174.086 89.792c-33.46 39.522-55.144 89.292-59.642 143.936H171.42c2.376-38.554 11.124-75.982 26.15-111.504a338.588 338.588 0 0 1 58.55-92.916l60.486 60.484z m-59.642 186.584c4.5 54.642 26.182 104.444 59.642 143.936l-60.486 60.486c-24.496-27.682-44.146-58.8-58.55-92.918-15.028-35.524-23.776-72.952-26.15-111.504h85.544z m89.792 174.116c39.522 33.43 89.292 55.114 143.936 59.612v85.542c-38.554-2.376-75.982-11.124-111.504-26.12-34.086-14.434-65.236-34.118-92.916-58.548l60.484-60.486z m186.582 59.61c54.644-4.498 104.446-26.182 143.936-59.612l60.486 60.486c-27.682 24.432-58.83 44.116-92.916 58.548-35.524 14.996-72.954 23.744-111.506 26.12v-85.542z m174.084-89.79c33.462-39.492 55.144-89.292 59.644-143.936h85.542c-2.376 38.552-11.124 75.98-26.152 111.504-14.402 34.118-34.086 65.236-58.546 92.918l-60.488-60.486z m59.644-186.584c-4.5-54.644-26.182-104.414-59.644-143.936l60.488-60.486c24.46 27.68 44.144 58.832 58.546 92.916 15.03 35.522 23.778 72.952 26.152 111.504h-85.542z m61.298-325.206l-60.39 60.424c-62.986-56.394-144.688-92.292-234.634-97.228V43.264c55.83 2.5 110.006 14.684 161.306 36.368 49.33 20.868 94.228 49.706 133.718 85.854zM490.692 43.264v85.418c-89.948 4.936-171.648 40.834-234.632 97.228L195.634 165.486c39.522-36.148 84.418-64.986 133.75-85.856 51.302-21.682 105.478-33.866 161.308-36.366zM165.486 195.634l60.424 60.424c-56.394 62.986-92.292 144.686-97.196 234.634h-85.42c2.468-55.832 14.652-110.006 36.366-161.306 20.84-49.334 49.676-94.228 85.826-133.752zM79.662 694.644c-21.714-51.3-33.898-105.474-36.366-161.304h85.418c4.904 89.948 40.802 171.68 97.196 234.664l-60.424 60.362c-36.15-39.49-64.986-84.356-85.824-133.722z m115.972 163.9l60.424-60.424c62.986 56.426 144.686 92.292 234.632 97.228v85.418c-55.83-2.5-110.006-14.684-161.306-36.368-49.332-20.866-94.228-49.674-133.75-85.854z m337.704 122.224v-85.418c89.948-4.936 171.648-40.802 234.634-97.228l60.39 60.424c-39.49 36.18-84.386 64.986-133.718 85.856-51.3 21.682-105.476 33.866-161.306 36.366z m325.206-152.402l-60.424-60.362c56.394-62.984 92.292-144.716 97.196-234.664h85.418c-2.466 55.83-14.652 110.004-36.334 161.304-20.868 49.366-49.708 94.232-85.856 133.722z" fill="#434A54" p-id="2203"></path></svg>